<svg width="38" height="38" viewBox="0 0 38 38" fill="none" xmlns="http://www.w3.org/2000/svg">
<path fill-rule="evenodd" clip-rule="evenodd" d="M8.5 37.5V0.5H37.5V33C37.5 35.48 35.48 37.5 33 37.5H8.5Z" fill="#DFF0FE"/>
<path d="M37 1V33C37 35.207 35.207 37 33 37H9V1H37ZM38 0H8V38H33C35.762 38 38 35.762 38 33V0Z" fill="#4788C7"/>
<path fill-rule="evenodd" clip-rule="evenodd" d="M5 37.5C2.52 37.5 0.5 35.48 0.5 33V29.5H28.5V33C28.5 35.313 30.254 37.223 32.5 37.473V37.5H5Z" fill="#DFF0FE"/>
<path d="M28 30V33C28 34.633 28.79 36.086 30.004 37H5C2.793 37 1 35.207 1 33V30H28ZM29 29H0V33C0 35.762 2.238 38 5 38H33V37C30.79 37 29 35.21 29 33V29Z" fill="#4788C7"/>
<path d="M15.5 23.5H14.5M31.5 8.5H19.5H31.5ZM15.5 8.5H14.5H15.5ZM31.5 13.5H19.5H31.5ZM15.5 13.5H14.5H15.5ZM31.5 18.5H19.5H31.5ZM15.5 18.5H14.5H15.5ZM31.5 23.5H19.5H31.5Z" stroke="#4788C7" stroke-linecap="round"/>
</svg>
