<svg width="43" height="57" viewBox="0 0 43 57" fill="none" xmlns="http://www.w3.org/2000/svg">
<path d="M40.048 18.072C40.816 21.192 41.2 24.624 41.2 28.368C41.2 32.112 40.816 35.568 40.048 38.736C39.328 41.904 38.2 44.76 36.664 47.304C35.176 49.8 33.112 51.768 30.472 53.208C27.88 54.648 24.832 55.368 21.328 55.368C16.72 55.368 12.856 54.096 9.736 51.552C6.664 49.008 4.48 45.792 3.184 41.904C1.936 37.968 1.312 33.456 1.312 28.368C1.312 24.624 1.672 21.192 2.392 18.072C3.16 14.952 4.312 12.144 5.848 9.648C7.384 7.152 9.472 5.208 12.112 3.816C14.752 2.376 17.824 1.656 21.328 1.656C24.832 1.656 27.88 2.376 30.472 3.816C33.112 5.208 35.176 7.152 36.664 9.648C38.2 12.144 39.328 14.952 40.048 18.072ZM28.816 28.368C28.816 26.496 28.72 24.72 28.528 23.04C28.336 21.312 27.976 19.56 27.448 17.784C26.968 16.008 26.2 14.592 25.144 13.536C24.088 12.432 22.816 11.88 21.328 11.88C19.84 11.88 18.544 12.432 17.44 13.536C16.384 14.592 15.592 16.008 15.064 17.784C14.584 19.56 14.224 21.312 13.984 23.04C13.792 24.72 13.696 26.496 13.696 28.368C13.696 30.24 13.792 32.04 13.984 33.768C14.224 35.496 14.584 37.272 15.064 39.096C15.592 40.872 16.384 42.312 17.44 43.416C18.496 44.472 19.792 45 21.328 45C22.816 45 24.088 44.472 25.144 43.416C26.2 42.312 26.968 40.872 27.448 39.096C27.976 37.272 28.336 35.52 28.528 33.84C28.72 32.112 28.816 30.288 28.816 28.368Z" fill="#DFF0FE"/>
<path d="M40.048 18.072L39.0736 18.2969L39.0752 18.304L39.077 18.311L40.048 18.072ZM40.048 38.736L39.0762 38.5004L39.0745 38.5074L39.0729 38.5144L40.048 38.736ZM36.664 47.304L35.8079 46.7871L35.8051 46.7919L36.664 47.304ZM30.472 53.208L29.9931 52.3301L29.9864 52.3338L30.472 53.208ZM9.736 51.552L9.09817 52.3222L9.10406 52.327L9.736 51.552ZM3.184 41.904L2.23077 42.2062L2.23299 42.2133L2.23532 42.2202L3.184 41.904ZM2.392 18.072L1.42099 17.833L1.41925 17.84L1.41761 17.8471L2.392 18.072ZM5.848 9.648L4.99634 9.1239H4.99634L5.848 9.648ZM12.112 3.816L12.5785 4.70066L12.5909 4.69389L12.112 3.816ZM30.472 3.816L29.9864 4.69016L29.9959 4.69547L30.0056 4.70057L30.472 3.816ZM36.664 9.648L35.805 10.1601L35.8123 10.1721L36.664 9.648ZM28.528 23.04L27.5341 23.1504L27.5345 23.1535L28.528 23.04ZM27.448 17.784L26.4826 18.0449L26.4859 18.057L26.4895 18.069L27.448 17.784ZM25.144 13.536L24.4214 14.2272L24.429 14.2352L24.4369 14.2431L25.144 13.536ZM17.44 13.536L16.7329 12.8289H16.7329L17.44 13.536ZM15.064 17.784L14.1055 17.499L14.1019 17.511L14.0986 17.5231L15.064 17.784ZM13.984 23.04L12.9935 22.9024L12.9918 22.9144L12.9905 22.9265L13.984 23.04ZM13.984 33.768L12.9901 33.8784L12.9916 33.892L12.9935 33.9056L13.984 33.768ZM15.064 39.096L14.0969 39.3505L14.101 39.3658L14.1055 39.381L15.064 39.096ZM17.44 43.416L16.7174 44.1072L16.725 44.1152L16.7329 44.1231L17.44 43.416ZM25.144 43.416L25.8511 44.1231L25.859 44.1152L25.8666 44.1072L25.144 43.416ZM27.448 39.096L26.4874 38.8179L26.485 38.8265L26.4826 38.8351L27.448 39.096ZM28.528 33.84L29.5215 33.9535L29.5219 33.9504L28.528 33.84ZM39.077 18.311C39.8229 21.3412 40.2 24.6916 40.2 28.368H42.2C42.2 24.5564 41.8091 21.0428 41.019 17.833L39.077 18.311ZM40.2 28.368C40.2 32.0441 39.8229 35.4199 39.0762 38.5004L41.0199 38.9716C41.8091 35.7161 42.2 32.1799 42.2 28.368H40.2ZM39.0729 38.5144C38.3743 41.5879 37.2838 44.3427 35.8079 46.7871L37.5201 47.8209C39.1162 45.1773 40.2817 42.2201 41.0231 38.9576L39.0729 38.5144ZM35.8051 46.7919C34.412 49.1287 32.4817 50.9727 29.9932 52.3301L30.9509 54.0859C33.7423 52.5633 35.94 50.4713 37.5229 47.8161L35.8051 46.7919ZM29.9864 52.3338C27.5678 53.6775 24.693 54.368 21.328 54.368V56.368C24.971 56.368 28.1922 55.6185 30.9576 54.0822L29.9864 52.3338ZM21.328 54.368C16.9151 54.368 13.284 53.1547 10.3679 50.777L9.10406 52.327C12.428 55.0373 16.5249 56.368 21.328 56.368V54.368ZM10.3738 50.7818C7.44996 48.3605 5.37126 45.3035 4.13268 41.5878L2.23532 42.2202C3.58874 46.2805 5.87804 49.6555 9.09819 52.3222L10.3738 50.7818ZM4.13723 41.6018C2.92645 37.7831 2.312 33.3763 2.312 28.368H0.312C0.312 33.5357 0.945552 38.1529 2.23077 42.2062L4.13723 41.6018ZM2.312 28.368C2.312 24.6873 2.66599 21.3319 3.36639 18.2969L1.41761 17.8471C0.678015 21.052 0.312 24.5607 0.312 28.368H2.312ZM3.36302 18.311C4.10861 15.282 5.22294 12.5718 6.69966 10.1721L4.99634 9.1239C3.40106 11.7162 2.21139 14.622 1.42099 17.833L3.36302 18.311ZM6.69966 10.1721C8.14003 7.83148 10.0937 6.01067 12.5784 4.70057L11.6456 2.93143C8.85027 4.40532 6.62797 6.47251 4.99634 9.1239L6.69966 10.1721ZM12.5909 4.69389C15.0614 3.34634 17.9635 2.656 21.328 2.656V0.655996C17.6845 0.655996 14.4426 1.40565 11.6331 2.9381L12.5909 4.69389ZM21.328 2.656C24.693 2.656 27.5678 3.34652 29.9864 4.69016L30.9576 2.94184C28.1922 1.40547 24.971 0.655996 21.328 0.655996V2.656ZM30.0056 4.70057C32.4876 6.00927 34.4138 7.82638 35.8051 10.1601L37.5229 9.13593C35.9382 6.47761 33.7364 4.40672 30.9384 2.93143L30.0056 4.70057ZM35.8123 10.1721C37.2864 12.5675 38.3758 15.2729 39.0736 18.2969L41.0224 17.8471C40.2802 14.6311 39.1136 11.7205 37.5157 9.1239L35.8123 10.1721ZM29.816 28.368C29.816 26.462 29.7183 24.6479 29.5215 22.9265L27.5345 23.1535C27.7217 24.7921 27.816 26.53 27.816 28.368H29.816ZM29.5219 22.9296C29.3229 21.1387 28.9504 19.3283 28.4065 17.499L26.4895 18.069C27.0016 19.7917 27.3491 21.4853 27.5341 23.1504L29.5219 22.9296ZM28.4134 17.5231C27.8983 15.6172 27.0563 14.0341 25.8511 12.8289L24.4369 14.2431C25.3437 15.1499 26.0378 16.3988 26.4826 18.0449L28.4134 17.5231ZM25.8666 12.8448C24.6277 11.5495 23.097 10.88 21.328 10.88V12.88C22.535 12.88 23.5483 13.3145 24.4214 14.2272L25.8666 12.8448ZM21.328 10.88C19.5606 10.88 18.0141 11.5476 16.7329 12.8289L18.1471 14.2431C19.0739 13.3164 20.1194 12.88 21.328 12.88V10.88ZM16.7329 12.8289C15.5342 14.0275 14.6696 15.6014 14.1055 17.499L16.0225 18.069C16.5144 16.4146 17.2338 15.1564 18.1471 14.2431L16.7329 12.8289ZM14.0986 17.5231C13.6083 19.3374 13.2396 21.1306 12.9935 22.9024L14.9745 23.1776C15.2084 21.4934 15.5597 19.7826 16.0294 18.0449L14.0986 17.5231ZM12.9905 22.9265C12.7937 24.6479 12.696 26.462 12.696 28.368H14.696C14.696 26.53 14.7903 24.7921 14.9775 23.1535L12.9905 22.9265ZM12.696 28.368C12.696 30.2741 12.7937 32.1111 12.9901 33.8784L14.9779 33.6576C14.7903 31.9689 14.696 30.2059 14.696 28.368H12.696ZM12.9935 33.9056C13.2394 35.676 13.6076 37.4911 14.0969 39.3505L16.0311 38.8415C15.5604 37.0529 15.2086 35.316 14.9745 33.6304L12.9935 33.9056ZM14.1055 39.381C14.6692 41.2772 15.5306 42.8665 16.7174 44.1072L18.1626 42.7248C17.2374 41.7575 16.5148 40.4668 16.0225 38.811L14.1055 39.381ZM16.7329 44.1231C17.9823 45.3725 19.5352 46 21.328 46V44C20.0488 44 19.0097 43.5715 18.1471 42.7089L16.7329 44.1231ZM21.328 46C23.0823 46 24.6083 45.3659 25.8511 44.1231L24.4369 42.7089C23.5677 43.5781 22.5497 44 21.328 44V46ZM25.8666 44.1072C27.0597 42.86 27.8986 41.2616 28.4134 39.3569L26.4826 38.8351C26.0374 40.4824 25.3403 41.764 24.4214 42.7248L25.8666 44.1072ZM28.4086 39.3741C28.9503 37.5027 29.3225 35.6955 29.5215 33.9535L27.5345 33.7265C27.3496 35.3445 27.0017 37.0413 26.4874 38.8179L28.4086 39.3741ZM29.5219 33.9504C29.7184 32.1822 29.816 30.3211 29.816 28.368H27.816C27.816 30.2549 27.7216 32.0418 27.5341 33.7296L29.5219 33.9504Z" fill="#4788C7"/>
</svg>
