<svg width="51" height="49" viewBox="0 0 51 49" fill="none" xmlns="http://www.w3.org/2000/svg">
<path d="M13.1271 0.5H46.6657C48.7853 0.5 50.4999 2.20952 50.4999 4.31375V22.8113C50.4999 24.9155 48.7853 26.625 46.6657 26.625H40.2541L33.4794 17.3429C33.4192 17.0711 33.236 16.8698 33.0432 16.7334C32.813 16.5706 32.5123 16.4552 32.1888 16.3676C31.5352 16.1905 30.631 16.0861 29.581 16.0298C27.4709 15.9166 24.6475 15.9924 21.7682 16.1414C18.8848 16.2907 15.9281 16.5145 13.5461 16.7007C13.2566 16.7233 12.9761 16.7454 12.7057 16.7666C11.1936 16.8853 9.99634 16.9793 9.29297 17.0167V12.25V4.31375C9.29297 2.20952 11.0075 0.5 13.1271 0.5Z" fill="#DFF0FE" stroke="#4788C7"/>
<path d="M19.3448 38.875H19.1244L18.9757 39.0378L11.0517 47.7114V39.375V38.875H10.5517H4.33412C2.21446 38.875 0.5 37.1654 0.5 35.0621V16.5638C0.5 14.4595 2.21453 12.75 4.33412 12.75H37.8719C39.9925 12.75 41.7069 14.4596 41.7069 16.5629V35.0613C41.7069 37.1655 39.9924 38.875 37.8728 38.875H19.3448Z" fill="#DFF0FE" stroke="#4788C7"/>
<path d="M21.9826 21.8881H9.67228C9.18602 21.8881 8.79297 21.4961 8.79297 21.0131C8.79297 20.5301 9.18602 20.1381 9.67228 20.1381H21.9826C22.4689 20.1381 22.8619 20.5301 22.8619 21.0131C22.8619 21.4961 22.4689 21.8881 21.9826 21.8881Z" fill="#4788C7"/>
<path d="M33.4137 27.1382H9.67228C9.18602 27.1382 8.79297 26.7462 8.79297 26.2632C8.79297 25.7802 9.18602 25.3882 9.67228 25.3882H33.4137C33.8999 25.3882 34.293 25.7802 34.293 26.2632C34.293 26.7462 33.8999 27.1382 33.4137 27.1382Z" fill="#4788C7"/>
<path d="M33.4137 32.3882H9.67228C9.18602 32.3882 8.79297 31.9962 8.79297 31.5132C8.79297 31.0302 9.18602 30.6382 9.67228 30.6382H33.4137C33.8999 30.6382 34.293 31.0302 34.293 31.5132C34.293 31.9962 33.8999 32.3882 33.4137 32.3882Z" fill="#4788C7"/>
</svg>
