<svg width="50" height="50" viewBox="0 0 50 50" fill="none" xmlns="http://www.w3.org/2000/svg">
<path d="M2.82615 0.5H19.1738C20.4563 0.5 21.5 1.54368 21.5 2.82615V19.1738C21.5 20.4563 20.4563 21.5 19.1738 21.5H2.82615C1.54368 21.5 0.5 20.4563 0.5 19.1738V2.82615C0.5 1.54368 1.54368 0.5 2.82615 0.5Z" fill="#DFF0FE" stroke="#4788C7"/>
<path d="M30.8262 0.5H47.1738C48.4563 0.5 49.5 1.54368 49.5 2.82615V19.1738C49.5 20.4563 48.4563 21.5 47.1738 21.5H30.8262C29.5437 21.5 28.5 20.4563 28.5 19.1738V2.82615C28.5 1.54368 29.5437 0.5 30.8262 0.5Z" fill="#DFF0FE" stroke="#4788C7"/>
<path d="M49.1538 38.1538H39.8462V28.8462C39.8462 28.3782 39.4679 28 39 28C38.5321 28 38.1538 28.3782 38.1538 28.8462V38.1538H28.8462C28.3782 38.1538 28 38.5321 28 39C28 39.4679 28.3782 39.8462 28.8462 39.8462H38.1538V49.1538C38.1538 49.6218 38.5321 50 39 50C39.4679 50 39.8462 49.6218 39.8462 49.1538V39.8462H49.1538C49.6218 39.8462 50 39.4679 50 39C50 38.5321 49.6218 38.1538 49.1538 38.1538Z" fill="#4788C7"/>
<path d="M2.82615 28.5H19.1738C20.4563 28.5 21.5 29.5437 21.5 30.8262V47.1738C21.5 48.4563 20.4563 49.5 19.1738 49.5H2.82615C1.54368 49.5 0.5 48.4563 0.5 47.1738V30.8262C0.5 29.5437 1.54368 28.5 2.82615 28.5Z" fill="#DFF0FE" stroke="#4788C7"/>
</svg>
