<svg width="39" height="36" viewBox="0 0 39 36" fill="none" xmlns="http://www.w3.org/2000/svg">
<path fill-rule="evenodd" clip-rule="evenodd" d="M0.513184 35.4857V12.8777L17.4269 1.16228C18.0406 0.740568 18.7539 0.514282 19.5 0.514282C20.2462 0.514282 20.9594 0.740568 21.5732 1.16228L38.4869 12.8777V35.4857H0.513184Z" fill="#DFF0FE"/>
<path d="M19.5 1.02857C20.1363 1.02857 20.7552 1.22194 21.2796 1.584L37.9737 13.1451V34.9714H1.02632V13.1451L17.7204 1.584C18.2438 1.21989 18.8637 1.02857 19.5 1.02857ZM19.5 0C18.6738 0 17.8476 0.2448 17.1395 0.740571L0 12.6072V36H39V12.6082L21.8605 0.738514C21.1524 0.246857 20.3272 0 19.5 0Z" fill="#4788C7"/>
<path fill-rule="evenodd" clip-rule="evenodd" d="M24.6316 22.6244H14.3685L1.02637 13.1451L17.7204 1.58399C18.2438 1.21988 18.8637 1.02856 19.5 1.02856C20.1364 1.02856 20.7552 1.22194 21.2797 1.58399L37.9737 13.1451L24.6316 22.6244Z" fill="#B6DCFE"/>
<path fill-rule="evenodd" clip-rule="evenodd" d="M14.5326 22.1102L8.72363 17.9835V0.514282H30.2763V17.9835L24.4673 22.1102H14.5326Z" fill="#98CCFD"/>
<path d="M29.7631 1.02857V17.7192L24.3031 21.5969H14.6927L9.23677 17.7182V1.02857H29.7631ZM30.7894 0H8.21045V18.2489L14.3683 22.6245H24.6315L30.7894 18.2489V0Z" fill="#4788C7"/>
<path d="M22.579 7.19997C22.579 8.90329 21.1997 10.2857 19.5001 10.2857C17.8005 10.2857 16.4212 8.90329 16.4212 7.19997C16.4212 5.49666 17.8005 4.11426 19.5001 4.11426C21.1997 4.11426 22.579 5.49666 22.579 7.19997ZM27.1975 19.5428C27.1975 16.1352 23.749 13.3714 19.5001 13.3714C15.2512 13.3714 11.8027 16.1362 11.8027 19.5428C11.8027 20.0293 11.8828 20.5035 12.0183 20.952C13.4099 21.9456 14.3685 22.6244 14.3685 22.6244H24.6317L26.9819 20.9581C27.1174 20.5035 27.1975 20.0293 27.1975 19.5428Z" fill="white"/>
<path fill-rule="evenodd" clip-rule="evenodd" d="M24.1626 21.6H14.7256L1.96853 12.5157L1.02637 13.1452L14.3685 22.6245H24.6316L37.9737 13.1462L37.1034 12.5445L24.1626 21.6Z" fill="#4788C7"/>
</svg>
