<svg width="17" height="17" viewBox="0 0 17 17" fill="none" xmlns="http://www.w3.org/2000/svg">
<path fill-rule="evenodd" clip-rule="evenodd" d="M13.1131 10.8201L16.5539 13.1149C16.9989 13.4108 17.1324 14.0045 16.8568 14.4624L15.9916 15.9005C15.726 16.3527 15.2955 16.6844 14.7905 16.826C14.3564 16.9434 13.9086 17.0019 13.459 17C11.5054 17 8.66313 15.9732 4.8452 12.1553C0.04567 7.35489 -0.34411 4.09652 0.174014 2.20854C0.315738 1.70359 0.647421 1.27311 1.09951 1.00731L2.53836 0.14293C2.99613 -0.132269 3.58938 0.00126357 3.88508 0.446085L6.17974 3.88719C6.46826 4.32401 6.37308 4.9092 5.96103 5.23208L4.6732 6.23414C4.50329 6.36399 4.45496 6.59915 4.5599 6.78547L4.66444 6.97614L4.66445 6.97615C5.00894 7.60706 5.4387 8.39411 7.02314 9.97923C8.60759 11.5644 9.39399 11.9933 10.026 12.3378L10.2167 12.4429C10.403 12.5464 10.6372 12.4972 10.766 12.3273L11.7683 11.0385C12.0911 10.6263 12.6764 10.5312 13.1131 10.8201ZM15.5054 15.6106L16.3686 14.1717C16.4883 13.9731 16.4304 13.7154 16.2372 13.5872L12.7967 11.2924C12.6071 11.1672 12.3533 11.2083 12.2131 11.387L11.2111 12.6752C10.9113 13.0672 10.369 13.1792 9.93854 12.9378L9.75243 12.8353L9.75173 12.8349C9.08812 12.4729 8.26232 12.0224 6.61951 10.3798C4.97674 8.73721 4.52633 7.91108 4.16434 7.24713L4.16394 7.24639L4.06166 7.06053C3.82031 6.63006 3.93225 6.08766 4.32426 5.78789L5.61238 4.78583C5.79112 4.64562 5.83228 4.39167 5.70699 4.2022L4.66079 2.63294L3.41429 0.761391C3.28598 0.568362 3.0285 0.510427 2.82987 0.62995L1.39103 1.4932C1.06422 1.68423 0.823936 1.99429 0.72049 2.35844C0.242004 4.10163 0.638292 7.14639 5.24604 11.7545C9.85378 16.3625 12.8986 16.7589 14.6414 16.2804C15.0051 16.177 15.3147 15.937 15.5054 15.6106Z" fill="#1553A3"/>
<path d="M9.29999 2.59998C12.1153 2.60311 14.3969 4.88465 14.4 7.70001C14.4 7.8657 14.5343 8 14.7 8C14.8657 8 15 7.8657 15 7.70001C14.9965 4.55341 12.4466 2.00345 9.29999 2C9.1343 2 9 2.1343 9 2.29999C9 2.46568 9.1343 2.59998 9.29999 2.59998Z" fill="#1553A3"/>
<path d="M9.2857 4.57141C11.0206 4.57345 12.4265 5.97938 12.4286 7.7143C12.4286 7.8721 12.5565 8 12.7143 8C12.8721 8 13 7.8721 13 7.7143C12.9976 5.6639 11.3361 4.00234 9.2857 4C9.1279 4 9 4.1279 9 4.2857C9 4.44351 9.1279 4.57141 9.2857 4.57141Z" fill="#1553A3"/>
<path d="M9.24999 6.49999C9.94 6.50081 10.4992 7.05997 10.5 7.75001C10.5 7.88808 10.612 8 10.75 8C10.8881 8 11 7.88808 11 7.75001C10.9989 6.78396 10.216 6.00108 9.24999 6C9.11192 6 9 6.11192 9 6.24999C9 6.38807 9.11192 6.49999 9.24999 6.49999Z" fill="#1553A3"/>
</svg>
