<svg width="41" height="41" viewBox="0 0 41 41" fill="none" xmlns="http://www.w3.org/2000/svg">
<path fill-rule="evenodd" clip-rule="evenodd" d="M2.69751 40.4605V13.2548L20.4958 2.78149L38.3028 13.2548V40.4605H2.69751Z" fill="#DFF0FE"/>
<path d="M20.4956 3.40942L37.7631 13.5623V39.921H3.23678V13.5623L20.4956 3.40942ZM20.4956 2.15784L2.15784 12.9473V40.9999H38.842V12.9473L20.4956 2.15784Z" fill="#4788C7"/>
<path fill-rule="evenodd" clip-rule="evenodd" d="M20.4959 3.93274L0.539673 16.1335V12.8341L20.4959 0.631165L40.4607 12.8351V16.1346L20.4959 3.93274Z" fill="#B6DCFE"/>
<path d="M20.4957 1.26453L39.9211 13.1373V15.1722L21.0611 3.64684L20.4957 3.30158L19.9346 3.64684L1.07895 15.17V13.1351L20.4957 1.26453ZM20.4957 0L0 12.5298V17.0992L20.4957 4.56395L41 17.0992V12.5298L20.4957 0Z" fill="#4788C7"/>
<path fill-rule="evenodd" clip-rule="evenodd" d="M14.5657 22.1184H26.4341V40.4605H14.5657V22.1184Z" fill="#B6DCFE"/>
<path d="M25.8949 22.6579V39.921H15.1054V22.6579H25.8949ZM26.9739 21.5789H14.0265V41H26.9739V21.5789Z" fill="#4788C7"/>
<path fill-rule="evenodd" clip-rule="evenodd" d="M24.8157 32.3684C24.8157 32.9619 24.3302 33.4474 23.7368 33.4474C23.1434 33.4474 22.6578 32.9619 22.6578 32.3684C22.6578 31.775 23.1434 31.2895 23.7368 31.2895C24.3302 31.2895 24.8157 31.775 24.8157 32.3684Z" fill="#4788C7"/>
</svg>
