<svg width="280" height="29" viewBox="0 0 280 29" fill="none" xmlns="http://www.w3.org/2000/svg">
<path fill-rule="evenodd" clip-rule="evenodd" d="M19.248 9.85741V9.83013C19.7738 9.66752 20.4751 9.24001 20.4751 8.11591C20.4751 6.85017 19.4234 6.27002 17.9436 6.27002H15.4313V9.29719H13.9531C11.9672 9.29719 11.5578 10.6584 11.5578 11.4006C11.5578 12.456 12.1818 12.9239 13.3306 13.4831C13.4501 13.5416 13.5736 13.5962 13.6961 13.6504C14.292 13.914 14.8668 14.1683 14.8668 14.817C14.8668 15.2267 14.4789 15.7219 13.6418 15.7219H12.0842C12.3176 15.3305 12.4147 14.9036 12.4147 14.5311C12.4147 14.047 12.2398 12.1046 9.47426 12.1046H7.21582V19.5941H8.75418V16.3303L9.37768 16.9393H13.5839C15.5483 16.9393 16.4835 15.9495 16.4835 14.7703C16.4835 14.3512 16.4057 14.016 16.2694 13.7417H17.8475C20.2814 13.7417 20.8459 12.5609 20.8459 11.6361C20.8448 10.6967 20.2219 10.0001 19.248 9.85741ZM9.47399 15.7215H8.75391V13.274H9.47453C10.3701 13.274 10.7789 13.8064 10.7789 14.4537C10.7784 15.0554 10.4092 15.7215 9.47399 15.7215ZM15.4316 12.8935V11.077L16.0358 10.4769H15.4316H14.9256H14.3043C13.3696 10.4769 13.1748 10.9317 13.1748 11.2364C13.1748 11.8381 13.7006 12.1046 14.1879 12.3139C14.2457 12.3385 14.3031 12.3627 14.3601 12.3868L14.3602 12.3868C14.7446 12.5492 15.1097 12.7035 15.4316 12.8935ZM16.9697 7.44092H17.671C18.859 7.44092 18.9175 8.1543 18.9175 8.37304C18.9175 8.69616 18.742 9.29677 17.7295 9.29677H16.9697V7.44092ZM16.9697 12.5612H17.8465C18.8198 12.5612 19.2089 12.0482 19.2089 11.5147C19.2089 10.9813 18.917 10.4767 17.8465 10.4767H16.9697V12.5612Z" fill="#0A104C"/>
<path fill-rule="evenodd" clip-rule="evenodd" d="M27.2601 6.5018C27.2601 2.91032 24.2824 0 20.609 0H11.2126C8.1811 0 5.59566 1.9972 4.81061 4.75866H16.1683C20.5374 4.75866 22.3916 6.74534 22.3916 11.4077V21.9455C25.209 21.1775 27.2596 18.6412 27.2596 15.6888V6.5018H27.2601Z" fill="#1553A3"/>
<path fill-rule="evenodd" clip-rule="evenodd" d="M0 20.1456C0 23.7377 2.97831 26.6481 6.65129 26.6481H16.0474C19.0795 26.6481 21.665 24.6509 22.4495 21.8894H11.0921C6.72286 21.8894 4.86861 19.9026 4.86861 15.2401V4.70264C2.05065 5.47008 0 8.00648 0 10.959V20.1456Z" fill="#F47B20"/>
<path fill-rule="evenodd" clip-rule="evenodd" d="M143.401 20.0858V10.3464H146.232V13.965H149.306V10.3464H152.097V20.0858H149.306V15.7438H146.232V20.0858H143.401Z" fill="#1553A3"/>
<path fill-rule="evenodd" clip-rule="evenodd" d="M139.327 18.5467V15.0854C138.138 15.2443 136.385 15.4498 136.385 17.1439C136.385 19.2214 138.629 18.8358 139.327 18.5467ZM133.801 17.3038C133.801 15.9692 134.499 14.9795 135.839 14.4647C136.443 14.2582 136.989 14.0967 137.46 14.0215C137.931 13.9378 138.555 13.8626 139.308 13.7577V13.4495C139.365 12.0382 138.555 11.7761 137.555 11.7761C136.649 11.7761 135.706 12.0647 134.876 12.5095L134.688 10.7598C135.839 10.3462 137.008 10.1392 138.216 10.1392C138.97 10.1392 139.63 10.2144 140.14 10.4029C141.214 10.7132 141.781 11.5505 141.912 12.5349C141.95 12.7425 141.95 13.0804 141.95 13.5247V19.5873C139.499 20.5283 133.801 21.158 133.801 17.3038Z" fill="#1553A3"/>
<path fill-rule="evenodd" clip-rule="evenodd" d="M129.592 18.2151C129.31 18.6017 128.933 18.7785 128.442 18.7785C126.819 18.7785 126.442 16.1264 126.442 14.9354C126.442 13.9372 126.65 12.8929 127.215 12.2457C127.498 11.8883 127.894 11.7268 128.385 11.7268C129.027 11.7268 129.592 12.1133 129.876 12.8929C130.215 13.7317 130.291 14.5965 130.291 15.3745C130.291 16.3912 130.14 17.4551 129.592 18.2151ZM132.988 13.0247C132.799 12.2722 132.365 11.5949 131.762 11.023C130.801 10.111 127.406 9.3585 125.763 11.802C125.763 9.22611 126.859 7.95726 129.047 7.59026C131.217 7.25239 132.44 7.01726 132.44 7.01726L132.233 4.92969C132.233 4.92969 129.99 5.24002 128.141 5.66315C126.142 6.13341 124.216 7.59079 123.746 10.5056C123.425 12.4041 123.464 15.6869 124.028 17.2174C124.689 18.9861 126.009 20.3217 128.424 20.3217C131.744 20.3217 133.271 18.2903 133.271 15.1113C133.271 14.4837 133.177 13.8074 132.988 13.0247Z" fill="#1553A3"/>
<path fill-rule="evenodd" clip-rule="evenodd" d="M153.718 20.0858V10.3464H156.51V14.8309L159.641 10.3464H162.395L159.206 14.6985L162.717 20.0858H159.603L156.51 15.2445V20.0858H153.718Z" fill="#1553A3"/>
<path fill-rule="evenodd" clip-rule="evenodd" d="M109.203 20.293C108.316 20.293 107.373 20.2173 106.543 19.9075L106.769 18.215C107.43 18.6016 108.052 18.7785 108.807 18.7785C110.222 18.7785 110.994 18.1313 110.958 17.2173C110.958 16.7772 110.826 16.4393 110.523 16.2021C110.241 15.9696 109.938 15.8377 109.543 15.8187C109.166 15.7885 108.863 15.762 108.6 15.762H107.92V14.3025H108.109C109.146 14.3025 110.769 14.258 110.769 12.923C110.788 11.8887 109.694 11.6515 109.146 11.6515C108.26 11.6515 107.562 11.858 106.769 12.2721L106.618 10.6665C107.6 10.2703 108.674 10.1115 109.75 10.1115C112.014 10.0638 113.428 11.0801 113.371 12.6111C113.409 13.863 112.334 14.597 111.579 14.8305C112.071 14.9359 112.485 15.0556 112.825 15.2928C113.503 15.744 113.768 16.4955 113.768 17.1733C113.768 18.421 113.089 19.2773 112.107 19.7481C111.126 20.1898 110.07 20.293 109.203 20.293Z" fill="#1553A3"/>
<path fill-rule="evenodd" clip-rule="evenodd" d="M84.0592 20.2932C80.8353 20.2932 79.043 18.3396 79.043 15.1685C79.043 12.0091 80.9484 10.1111 84.0969 10.1111C84.9649 10.1111 85.5875 10.2138 86.3981 10.5056L86.0969 12.2723C85.5689 12.0091 85.1153 11.8581 84.5495 11.8581C82.6632 11.8581 81.8541 13.3928 81.8541 15.0854C81.8541 16.8044 82.6446 18.5159 84.5686 18.5159C85.1535 18.5159 85.6242 18.3957 86.1347 18.132L86.3418 19.9267C85.5679 20.1899 84.889 20.2932 84.0592 20.2932Z" fill="#1553A3"/>
<path fill-rule="evenodd" clip-rule="evenodd" d="M114.976 20.0858V10.3464H117.747V13.4195C118.331 13.3925 118.709 13.3925 118.86 13.3925C120.142 13.3925 121.105 13.6001 121.689 14.0397C122.388 14.5666 122.859 15.4986 122.821 16.5154C122.746 19.6918 119.52 20.2934 117.766 20.2934C115.935 20.2934 114.976 20.0858 114.976 20.0858ZM117.746 18.5153C117.746 18.5153 120.274 19.0428 120.274 16.6465C120.274 16.2022 120.199 15.8638 120.029 15.6387C119.746 15.1419 119.104 15.0551 118.425 15.0551H118.161H118.029C117.991 15.0551 117.896 15.0551 117.746 15.0853V18.5153Z" fill="#1553A3"/>
<path fill-rule="evenodd" clip-rule="evenodd" d="M90.5869 14.4082V11.7275C90.5869 11.7275 90.8706 11.701 91.5681 11.701C92.9073 11.701 93.1718 12.4795 93.1718 12.9799C93.1718 13.9384 92.5869 14.4082 91.2286 14.4082H90.5869ZM91.2849 15.9212C91.5484 15.9212 91.8315 15.9212 92.1715 15.9508C92.511 15.9699 92.7936 16.0711 93.0581 16.2892C93.3232 16.4667 93.4539 16.8051 93.4539 17.2494C93.4539 18.3207 92.511 18.7046 91.2849 18.7046C90.945 18.7046 90.5869 18.6861 90.5869 18.6861V15.9217H91.2849V15.9212ZM94.0586 14.905C95.2283 14.5407 95.8126 13.8077 95.8126 12.6967C95.8126 12.1973 95.6995 11.8028 95.4923 11.4633C95.266 11.1064 94.8883 10.7887 94.4171 10.6102C93.53 10.2141 92.3045 10.1113 91.2288 10.1113C89.173 10.1113 87.8721 10.3465 87.8721 10.3465V20.0858C87.8721 20.0858 89.249 20.2934 91.2288 20.2934C93.1911 20.2934 96.1723 19.8046 96.2477 17.3246C96.2477 17.3045 96.2477 17.2743 96.2477 17.2182C96.3035 16.1569 95.6241 15.1121 94.0586 14.905Z" fill="#1553A3"/>
<path fill-rule="evenodd" clip-rule="evenodd" d="M102.355 14.5663H101.658C100.319 14.5663 99.7705 14.1268 99.7705 13.0248C99.7705 11.9063 100.64 11.6516 101.337 11.6516C102.015 11.6516 102.355 11.7003 102.355 11.7003V14.5663ZM101.733 10.1111C99.6768 10.1111 97.1127 10.449 97.1127 13.0799C97.1127 14.4642 97.7921 15.3184 99.1483 15.6864L96.5283 20.0856H99.4319L101.525 16.2022H102.356V20.0856H105.11V10.3462C105.11 10.3462 103.77 10.1111 101.733 10.1111Z" fill="#1553A3"/>
<path fill-rule="evenodd" clip-rule="evenodd" d="M33.9414 20.0856V6.65137H44.2034V20.0856H41.2227V8.55094H36.9406V20.0856H33.9414Z" fill="#1553A3"/>
<path fill-rule="evenodd" clip-rule="evenodd" d="M52.1625 14.8787C52.1625 11.2305 49.6153 11.5493 48.6719 11.776V18.1319C49.0496 18.215 52.1625 19.4082 52.1625 14.8787ZM45.8447 24.0171V10.6099C48.2952 10.111 54.9354 8.73729 54.9354 14.6717C54.9354 16.2318 54.5205 17.5865 53.7093 18.5153C52.1247 20.4244 49.5213 20.2174 48.6724 19.8795V24.0171H45.8447Z" fill="#1553A3"/>
<path fill-rule="evenodd" clip-rule="evenodd" d="M60.765 18.76C61.5766 18.76 62.1238 18.1018 62.3496 17.2486C62.5573 16.3642 62.595 15.7436 62.595 15.0853C62.595 14.1459 62.4818 13.4495 62.2178 12.742C61.9342 12.009 61.3312 11.6516 60.765 11.6516C59.9538 11.6516 59.3695 12.2272 59.124 13.0248C58.8595 13.7868 58.8037 14.5663 58.8037 15.0853C58.8037 16.2885 59.0863 18.76 60.765 18.76ZM60.5576 20.2932C57.3316 20.2932 55.9355 18.2644 55.9355 15.2172C55.9355 12.0647 57.5956 10.1111 60.8402 10.1111C61.9914 10.1111 62.9337 10.3748 63.6323 10.9012C64.3282 11.4181 64.7994 12.0647 65.0071 12.8474C65.2525 13.6269 65.3656 14.389 65.3656 15.142C65.3662 18.4211 63.9701 20.2932 60.5576 20.2932Z" fill="#1553A3"/>
<path fill-rule="evenodd" clip-rule="evenodd" d="M65.9512 20.0858L66.9695 10.3464H70.2142L72.2328 16.9852L74.2328 10.3464H77.4397L78.3826 20.0858H75.7988L75.2511 13.0806L73.1385 20.0858H70.8936L68.7432 13.025L68.1961 20.0858H65.9512Z" fill="#1553A3"/>
<path fill-rule="evenodd" clip-rule="evenodd" d="M200.641 6.29018L204.244 8.62172L205.451 7.03438L201.848 4.70288L200.641 6.29018Z" fill="#FDC900"/>
<path fill-rule="evenodd" clip-rule="evenodd" d="M210.831 9.85997C210.617 9.89005 210.422 9.90792 210.231 9.94587C208.639 10.262 207.594 11.1621 207.226 12.7652C206.995 13.7682 207.012 14.7754 207.284 15.7672C207.515 16.6095 207.972 17.3107 208.723 17.7938C209.362 18.2045 210.064 18.4172 210.831 18.4714V9.85997ZM213.277 18.4439C214.589 18.5238 216.086 17.6095 216.61 16.3608C217.201 14.9543 217.194 13.5119 216.67 12.0862C216.378 11.2918 215.817 10.7074 215.05 10.334C214.496 10.0643 213.915 9.89449 213.277 9.88025V18.4439ZM204.674 13.5756C204.733 13.277 204.787 12.977 204.853 12.6798C205.423 10.1353 207.297 8.40725 209.901 8.02379C210.206 7.97893 210.512 7.94423 210.844 7.90143V2.37134H213.247C213.253 2.49668 213.264 2.62304 213.264 2.74945C213.265 4.33383 213.276 5.91836 213.256 7.50247C213.251 7.84981 213.361 7.93949 213.693 7.96542C215.216 8.08423 216.575 8.61146 217.669 9.69926C218.955 10.9768 219.487 12.5617 219.447 14.3387C219.416 15.7481 218.993 17.0393 218.092 18.1517C217.076 19.4052 215.73 20.0637 214.157 20.3092C213.876 20.3531 213.591 20.3763 213.263 20.4142V28.9995H210.856V20.4431C210.325 20.3532 209.811 20.2946 209.312 20.1771C206.763 19.5772 204.999 17.5516 204.737 14.9502C204.729 14.865 204.695 14.7822 204.674 14.6983V13.5756Z" fill="#1553A3"/>
<path fill-rule="evenodd" clip-rule="evenodd" d="M230.035 11.6469C229.621 12.2038 229.228 12.758 228.81 13.2929C227.114 15.463 225.409 17.6257 223.714 19.7964C223.572 19.9785 223.427 20.0623 223.19 20.052C222.738 20.0323 222.285 20.0463 221.807 20.0463V8.26297H224.209C224.119 11.0238 224.335 13.7668 224.067 16.5234C224.101 16.4909 224.135 16.4663 224.159 16.4349C226.084 13.9562 228.027 11.4902 229.92 8.98789C230.349 8.42202 230.781 8.15951 231.505 8.22556C232.31 8.29898 232.315 8.24236 232.315 9.04715V19.7088V20.023H229.868C229.969 17.234 229.728 14.4483 230.035 11.6469Z" fill="#1553A3"/>
<path fill-rule="evenodd" clip-rule="evenodd" d="M254.415 14.2919C252.96 14.5461 251.549 14.7898 250.14 15.0452C250.047 15.0621 249.951 15.1533 249.888 15.2344C249.497 15.7374 249.423 16.3207 249.525 16.9234C249.669 17.7768 250.148 18.1985 251.024 18.2766C252.291 18.3895 253.356 17.921 254.301 17.1267C254.36 17.0777 254.41 16.9817 254.41 16.9071C254.418 16.0509 254.415 15.1945 254.415 14.2919ZM254.397 12.6429C254.497 11.0782 253.539 10.0821 251.904 10.0092C250.869 9.96308 249.854 10.095 248.847 10.3124C248.806 10.3213 248.763 10.3229 248.682 10.3325C248.604 9.64685 248.527 8.97591 248.444 8.25057C248.979 8.16368 249.495 8.05552 250.017 8.00013C251.228 7.87166 252.44 7.79359 253.634 8.14383C255.514 8.69508 256.717 10.1739 256.794 12.1255C256.849 13.532 256.822 14.9416 256.849 16.3495C256.853 16.5576 256.913 16.7851 257.013 16.9671C257.439 17.7363 257.889 18.4917 258.351 19.2884C257.732 19.6646 257.124 20.0337 256.485 20.4221C256.02 19.8283 255.561 19.243 255.121 18.6811C254.58 19.0599 254.084 19.4664 253.534 19.7815C252.069 20.6217 250.535 20.6695 249.033 19.9218C247.691 19.2536 247.216 18.0391 247.224 16.6093C247.231 15.3137 247.816 14.3227 248.865 13.5713C249.361 13.216 249.939 13.2723 250.485 13.1899C251.718 13.004 252.957 12.8597 254.194 12.6968C254.259 12.6882 254.322 12.6633 254.397 12.6429Z" fill="#1553A3"/>
<path fill-rule="evenodd" clip-rule="evenodd" d="M245.158 20.0277H242.732V14.9437C242.611 14.9346 242.515 14.9213 242.42 14.9212C240.96 14.9199 239.501 14.9277 238.041 14.9139C237.756 14.9111 237.693 15.007 237.695 15.2722C237.707 16.7136 237.701 18.1552 237.701 19.5967V20.0185H235.305V8.26214H237.696V12.7652H242.72V8.27653C242.826 8.26325 242.909 8.244 242.993 8.24366C243.612 8.24106 244.231 8.25393 244.85 8.23648C245.106 8.22931 245.164 8.31815 245.163 8.55828C245.154 10.4179 245.158 12.2776 245.158 14.1373C245.158 15.9749 245.158 17.8126 245.158 19.6502V20.0277Z" fill="#1553A3"/>
<path fill-rule="evenodd" clip-rule="evenodd" d="M279.322 10.3914C278.753 10.3171 278.199 10.1962 277.642 10.1842C276.974 10.1699 276.288 10.1699 275.639 10.305C274.618 10.5177 273.926 11.1935 273.578 12.1714C273.205 13.2158 273.115 14.2982 273.336 15.3862C273.708 17.2197 274.964 18.2238 276.845 18.1349C277.632 18.0977 278.411 17.9024 279.194 17.7768C279.291 17.7612 279.386 17.7322 279.515 17.7014C279.672 18.3257 279.827 18.9392 280 19.628C279.528 19.7949 279.065 19.9896 278.585 20.1227C276.985 20.5657 275.397 20.5715 273.865 19.8595C272.201 19.0863 271.254 17.7389 270.883 15.9837C270.509 14.212 270.656 12.4809 271.492 10.8519C272.391 9.09944 273.918 8.24162 275.822 7.97105C276.985 7.80559 278.135 7.90634 279.263 8.23028C279.359 8.25803 279.502 8.38402 279.499 8.45854C279.47 9.06198 279.413 9.66405 279.362 10.2664C279.358 10.307 279.337 10.3461 279.322 10.3914Z" fill="#1553A3"/>
<path fill-rule="evenodd" clip-rule="evenodd" d="M268.209 7.87402C268.815 8.27096 269.394 8.65064 270.006 9.05169C268.563 10.7182 267.138 12.3643 265.695 14.0298C267.343 15.812 268.98 17.5828 270.646 19.3856C269.906 19.7617 269.195 20.1302 268.473 20.4774C268.417 20.5042 268.264 20.4022 268.197 20.3249C266.448 18.2956 264.705 16.2616 262.961 14.2284C262.932 14.195 262.902 14.1624 262.851 14.1042C264.626 12.0399 266.405 9.97182 268.209 7.87402Z" fill="#1553A3"/>
<mask id="mask0" mask-type="alpha" maskUnits="userSpaceOnUse" x="200" y="2" width="81" height="27">
<path fill-rule="evenodd" clip-rule="evenodd" d="M200.641 29.0001H280V2.37183H200.641V29.0001Z" fill="white"/>
</mask>
<g mask="url(#mask0)">
<path fill-rule="evenodd" clip-rule="evenodd" d="M260.416 20.0287H262.79V8.26807H260.416V20.0287Z" fill="#3F51B5"/>
</g>
<path d="M182.26 9.79508V14.2951H186.76V15.4951H182.26V19.9951H181.06V15.4951H176.56V14.2951H181.06V9.79508H182.26Z" fill="#202020"/>
</svg>
